<svg width="172" height="172" viewBox="0 0 172 172" fill="none" xmlns="http://www.w3.org/2000/svg">
<path d="M152.292 93.1668V60.9168C152.292 51.4132 148.517 42.2989 141.796 35.5788C135.076 28.8588 125.962 25.0835 116.458 25.0835H55.5418C46.0382 25.0835 36.9239 28.8588 30.2038 35.5788C23.4838 42.2989 19.7085 51.4132 19.7085 60.9168V111.083C19.7085 115.789 20.6354 120.449 22.4361 124.796C24.2369 129.144 26.8764 133.094 30.2038 136.421C36.9239 143.142 46.0382 146.917 55.5418 146.917H100.405" stroke="#D5714B" stroke-width="7.5" stroke-linecap="round" stroke-linejoin="round"/>
<path d="M21.5718 121.834L41.2084 98.9004C43.7873 96.3391 47.1719 94.7474 50.7894 94.3948C54.4069 94.0422 58.0352 94.9503 61.0601 96.9653C64.085 98.9804 67.7133 99.8885 71.3308 99.5359C74.9483 99.1833 78.3329 97.5916 80.9118 95.0304L97.6101 78.332C102.408 73.5177 108.761 70.5648 115.534 70.0004C122.308 69.4359 129.061 71.2966 134.59 75.2503L152.292 88.9387M57.4051 72.8853C58.9674 72.8759 60.5125 72.5589 61.9523 71.9523C63.3921 71.3458 64.6983 70.4616 65.7963 69.3502C66.8944 68.2389 67.7628 66.9221 68.352 65.4751C68.9411 64.0282 69.2395 62.4793 69.2301 60.917C69.2207 59.3547 68.9037 57.8096 68.2971 56.3698C67.6905 54.93 66.8063 53.6238 65.695 52.5258C64.5836 51.4277 63.2669 50.5593 61.8199 49.9702C60.3729 49.381 58.8241 49.0826 57.2618 49.092C54.1066 49.111 51.0882 50.3826 48.8706 52.6271C46.6529 54.8716 45.4178 57.9052 45.4368 61.0604C45.4558 64.2155 46.7274 67.234 48.9719 69.4516C51.2164 71.6692 54.2499 72.9044 57.4051 72.8853Z" stroke="#D5714B" stroke-width="7.5" stroke-linecap="round" stroke-linejoin="round"/>
<path d="M134.067 107.5V143.333" stroke="#D5714B" stroke-width="7.5" stroke-miterlimit="10" stroke-linecap="round"/>
<path d="M150.5 122.586L136.403 108.489C136.097 108.182 135.733 107.938 135.332 107.771C134.931 107.604 134.501 107.519 134.067 107.519C133.633 107.519 133.203 107.604 132.802 107.771C132.401 107.938 132.037 108.182 131.731 108.489L117.634 122.586" stroke="#D5714B" stroke-width="7.5" stroke-linecap="round" stroke-linejoin="round"/>
</svg>
