<svg width="1440" height="1024" viewBox="0 0 1440 1024" fill="none" xmlns="http://www.w3.org/2000/svg">
<path d="M1439.96 0.0129269V170.667L1351.71 212.507L1270.25 251.131L1194.8 286.904L1124.72 320.122L1059.48 351.058L998.589 379.932L941.599 406.952L888.186 432.287L837.984 456.079M1439.96 1.21593e-05L0.040689 1.21593e-05M1199.97 1023.94L239.993 1023.94M1199.97 1023.94L1439.96 1023.94V853.32L1351.71 811.558L1270.25 772.998L1194.8 737.291L1124.72 704.125L1059.48 673.241L998.589 644.418L941.599 617.45L888.186 592.167L837.984 568.413V428.073L888.186 392.392M1199.97 1023.94L1141.11 961.259L1086.76 903.394L1036.43 849.807L989.728 800.045L946.234 753.705L905.625 710.452L867.618 669.986L832.009 632.049L798.554 596.406H601.202L551.081 632.049M0 1023.94L0 0.0129269M1440 170.654V853.281M88.2087 961.272L1351.75 961.272V62.7666L1270.29 120.697M1270.29 120.697V903.407L169.548 903.407M1270.29 120.697L169.548 120.697L88.168 62.7666L88.168 961.259L0.040689 1023.94H240.034L298.772 961.259L352.998 903.394L403.2 849.807L449.824 800.045L493.237 753.705L533.765 710.452L571.691 669.986L607.259 632.049L640.672 596.406M169.548 903.407L88.168 961.272M169.548 903.407L169.548 251.144L88.168 212.52L0.040689 170.68M1194.84 174.336V849.82L244.912 849.82M1124.76 224.15V800.058L314.869 800.058M0.0813779 0.0129269L88.2087 62.7536H298.813L353.038 120.684L403.24 174.323L449.865 224.137L493.278 270.528L533.805 313.833L571.731 354.351L607.3 392.34L640.713 428.022H798.595L832.049 392.34L867.658 354.351L905.666 313.833L946.274 270.528L989.769 224.137L1036.47 174.323L1086.8 120.684L1141.15 62.7536H1351.75L1440 0.0129269M1059.48 270.554V753.731L379.989 753.731M169.507 120.697L244.83 174.336M244.83 174.336L1194.76 174.336L1270.21 120.697M244.83 174.336L244.83 849.82L169.507 903.407M239.993 0.0129269L298.731 62.7536L1141.11 62.7536L1199.97 0.0129269M0.040689 853.281L88.168 811.519L169.548 772.959L244.871 737.252L314.828 704.086L379.989 673.202L440.8 644.379L497.709 617.411L551.041 592.128L601.161 568.375V456.105L551.041 432.313L497.709 406.978L440.8 379.958L379.989 351.083L314.828 320.147L244.871 286.93L169.548 251.157V120.71M244.871 174.349L314.828 224.163L1124.72 224.163L1194.8 174.349M244.871 849.846L314.828 800.083V224.176M1439.96 341.346L1351.71 362.286L1270.25 381.618L1194.8 399.523L1124.72 416.145L1059.48 431.626L998.589 446.083L941.599 459.606L888.186 472.286L837.984 484.202M1439.96 682.667L1351.71 661.805L1270.25 642.538L1194.8 624.697L1124.72 608.127L1059.48 592.698L998.589 578.293L941.599 564.822L888.186 552.193L837.984 540.33M440.8 710.478L998.589 710.478V313.885L941.599 354.403M759.044 596.432L775.79 632.075L793.636 670.012L812.66 710.478L832.984 753.731L854.773 800.071L878.146 849.833L903.348 903.42L930.543 961.285L960.013 1023.96M680.143 596.458L663.477 632.101L645.713 670.038L626.771 710.504L606.527 753.757L584.82 800.096L561.528 849.859L536.448 903.446L509.375 961.311L480.026 1023.99M314.828 224.202L379.989 270.593H1059.48L1124.72 224.202M314.828 800.109L379.989 753.77V270.58M1439.96 512.013L1351.71 512.052L1270.25 512.091L1194.8 512.117L1124.72 512.143L1059.48 512.168L998.589 512.194L941.599 512.22L888.186 512.246L837.984 512.272M719.573 596.471V632.114L719.655 670.051V710.517L719.735 753.77V800.109L719.816 849.872V903.458L719.939 961.324L720.02 1024M379.989 270.606L440.8 313.911M440.8 313.911H998.589L1059.48 270.606M440.8 313.911V710.543M379.989 753.796L440.8 710.543M440.8 710.543L497.709 670.077V354.416L440.8 313.898M941.599 354.403H497.709L551.041 392.392V632.127L497.709 670.064L941.599 670.064V354.403ZM888.186 632.075L837.984 596.432H798.514M551.081 392.314H888.227M888.227 392.314L941.64 354.325M888.227 392.314V632.049L941.64 669.986L998.63 710.452L1059.52 753.705L1124.76 800.045L1194.84 849.807L1270.29 903.394L1351.75 961.259L1440 1023.94M551.081 632.075H888.227M960.013 0.02596L930.543 62.7666L903.348 120.697L878.146 174.336L854.773 224.15L832.984 270.541L812.66 313.846L793.636 354.364L775.79 392.353L759.044 428.035M479.986 0.02596L509.335 62.7666L536.407 120.697L561.488 174.336L584.78 224.15L606.487 270.541L626.73 313.846L645.672 354.364L663.436 392.353L680.102 428.035M601.161 484.163L551.041 472.247L497.709 459.567L440.8 446.044L379.989 431.587L314.828 416.106L244.871 399.484L169.548 381.579L88.168 362.247L0.040689 341.307M601.161 540.278L551.041 552.142L497.709 564.77L440.8 578.241L379.989 592.646L314.828 608.075L244.871 624.645L169.548 642.486L88.168 661.753L0.040689 682.615M720.02 1.21593e-05L719.939 62.7407V120.671L719.816 174.31V224.124L719.735 270.515V313.82L719.655 354.338V392.327L719.573 428.009M601.161 512.207L551.041 512.182L497.709 512.156L440.8 512.13L379.989 512.104L314.828 512.078L244.871 512.052L169.548 512.026L88.168 511.987L0.040689 511.948M601.161 427.996H640.632M601.161 596.393V568.323M601.161 456.053V427.983L551.041 392.301M798.514 427.983H837.984M837.984 568.323V596.393" stroke="url(#paint0_radial_366_99)" stroke-opacity="0.5" stroke-width="0.25" stroke-linecap="round" stroke-linejoin="round"/>
<defs>
<radialGradient id="paint0_radial_366_99" cx="0" cy="0" r="1" gradientUnits="userSpaceOnUse" gradientTransform="translate(720 512) rotate(90) scale(512 720)">
<stop stop-color="#F7F7F7"/>
<stop offset="1" stop-color="#414141"/>
</radialGradient>
</defs>
</svg>
