<svg width="327" height="143" viewBox="0 0 327 143" fill="none" xmlns="http://www.w3.org/2000/svg">
<path d="M6 71.25H45.75L59 33L94.3333 109.5L112 52.125L125.25 71.25H165" stroke="#9333EA" stroke-width="12" stroke-linecap="round" stroke-linejoin="round"/>
<path d="M143.132 108.712C143.132 110.736 142.488 112.438 141.2 113.818C139.912 115.106 138.256 115.75 136.232 115.75C134.3 115.75 132.644 115.106 131.264 113.818C129.976 112.438 129.332 110.736 129.332 108.712V49.648C129.332 47.624 129.976 45.968 131.264 44.68C132.644 43.3 134.3 42.61 136.232 42.61C138.256 42.61 139.912 43.3 141.2 44.68C142.488 45.968 143.132 47.624 143.132 49.648V108.712ZM136.094 33.502C133.426 33.502 131.494 33.042 130.298 32.122C129.102 31.11 128.504 29.454 128.504 27.154V24.946C128.504 22.646 129.148 21.036 130.436 20.116C131.724 19.196 133.656 18.736 136.232 18.736C138.992 18.736 140.97 19.242 142.166 20.254C143.362 21.174 143.96 22.738 143.96 24.946V27.154C143.96 29.546 143.316 31.202 142.028 32.122C140.832 33.042 138.854 33.502 136.094 33.502Z" fill="#9333EA"/>
<path d="M157.882 104.434C157.054 103.146 156.686 101.674 156.778 100.018C156.87 98.27 157.836 96.798 159.676 95.602C160.964 94.774 162.298 94.452 163.678 94.636C165.15 94.728 166.53 95.418 167.818 96.706C170.394 99.558 173.246 101.812 176.374 103.468C179.594 105.124 183.458 105.952 187.966 105.952C189.806 105.86 191.692 105.584 193.624 105.124C195.556 104.572 197.212 103.652 198.592 102.364C199.972 100.984 200.662 99.006 200.662 96.43C200.662 94.13 199.926 92.29 198.454 90.91C196.982 89.53 195.05 88.426 192.658 87.598C190.266 86.678 187.69 85.85 184.93 85.114C181.986 84.286 178.996 83.366 175.96 82.354C173.016 81.342 170.348 80.054 167.956 78.49C165.564 76.834 163.586 74.718 162.022 72.142C160.55 69.566 159.814 66.392 159.814 62.62C159.814 58.296 161.01 54.57 163.402 51.442C165.886 48.314 169.06 45.876 172.924 44.128C176.88 42.38 181.158 41.506 185.758 41.506C188.426 41.506 191.232 41.874 194.176 42.61C197.12 43.254 199.972 44.312 202.732 45.784C205.492 47.256 207.884 49.188 209.908 51.58C210.828 52.776 211.334 54.202 211.426 55.858C211.61 57.514 210.874 58.986 209.218 60.274C208.114 61.194 206.78 61.608 205.216 61.516C203.652 61.424 202.364 60.918 201.352 59.998C199.604 57.79 197.35 56.088 194.59 54.892C191.83 53.604 188.702 52.96 185.206 52.96C183.458 52.96 181.618 53.236 179.686 53.788C177.846 54.248 176.282 55.122 174.994 56.41C173.706 57.698 173.062 59.584 173.062 62.068C173.062 64.368 173.798 66.208 175.27 67.588C176.834 68.968 178.858 70.118 181.342 71.038C183.826 71.958 186.54 72.786 189.484 73.522C192.336 74.258 195.142 75.132 197.902 76.144C200.754 77.156 203.284 78.49 205.492 80.146C207.792 81.71 209.632 83.78 211.012 86.356C212.484 88.84 213.22 92.014 213.22 95.878C213.22 100.386 211.886 104.25 209.218 107.47C206.642 110.598 203.33 112.99 199.282 114.646C195.326 116.302 191.14 117.13 186.724 117.13C181.48 117.13 176.236 116.21 170.992 114.37C165.84 112.438 161.47 109.126 157.882 104.434Z" fill="#9333EA"/>
<line x1="227" y1="18" x2="311" y2="18" stroke="#9333EA" stroke-width="4"/>
<line x1="235" y1="39" x2="298" y2="39" stroke="#9333EA" stroke-width="4"/>
<line y1="-2" x2="84" y2="-2" transform="matrix(1 0 0 -1 227 111)" stroke="#9333EA" stroke-width="4"/>
<line y1="-2" x2="63" y2="-2" transform="matrix(1 0 0 -1 235 90)" stroke="#9333EA" stroke-width="4"/>
<path d="M219 9C223.48 19.5488 235.592 67.5 267 67.5" stroke="#FDFCFC" stroke-width="13" stroke-linecap="square"/>
<path d="M319.5 135C318.499 126.253 310.007 95.352 292.5 79" stroke="#FDFCFC" stroke-width="13" stroke-linecap="square"/>
<path d="M316 9C311.52 19.5488 297.739 68.1907 266.331 68.1907C227.181 68.1907 220.363 123.084 219 135" stroke="#FDFCFC" stroke-width="13" stroke-linecap="square"/>
</svg>
