<svg width="143" height="143" viewBox="0 0 143 143" fill="none" xmlns="http://www.w3.org/2000/svg">
<path d="M126.615 77.4577V50.6452C126.615 42.7439 123.476 35.1663 117.889 29.5793C112.302 23.9923 104.724 20.8535 96.8229 20.8535H46.177C38.2758 20.8535 30.6982 23.9923 25.1112 29.5793C19.5241 35.1663 16.3854 42.7439 16.3854 50.6452V92.3535C16.3854 96.2658 17.156 100.14 18.6531 103.754C20.1503 107.369 22.3447 110.653 25.1112 113.419C30.6982 119.006 38.2758 122.145 46.177 122.145H83.4762" stroke="url(#paint0_linear_366_794)" stroke-width="7.5" stroke-linecap="round" stroke-linejoin="round"/>
<path d="M17.9346 101.292L34.2604 82.2251C36.4045 80.0956 39.2184 78.7723 42.226 78.4792C45.2336 78.186 48.2501 78.941 50.765 80.6163C53.2799 82.2916 56.2964 83.0466 59.304 82.7534C62.3116 82.4603 65.1255 81.137 67.2696 79.0076L81.1525 65.1246C85.1415 61.122 90.423 58.667 96.0545 58.1977C101.686 57.7285 107.301 59.2754 111.897 62.5626L126.615 73.943M47.7262 60.5963C49.0251 60.5885 50.3097 60.3249 51.5068 59.8206C52.7038 59.3163 53.7897 58.5812 54.7027 57.6572C55.6156 56.7332 56.3376 55.6385 56.8274 54.4355C57.3172 53.2325 57.5653 51.9448 57.5575 50.6459C57.5497 49.347 57.2861 48.0624 56.7818 46.8654C56.2775 45.6683 55.5424 44.5824 54.6184 43.6695C53.6944 42.7565 52.5997 42.0346 51.3967 41.5447C50.1937 41.0549 48.906 40.8068 47.6071 40.8146C44.9839 40.8304 42.4744 41.8877 40.6306 43.7537C38.7869 45.6198 37.76 48.1418 37.7758 50.7651C37.7916 53.3883 38.8488 55.8978 40.7149 57.7415C42.581 59.5852 45.103 60.6121 47.7262 60.5963Z" stroke="url(#paint1_linear_366_794)" stroke-width="7.5" stroke-linecap="round" stroke-linejoin="round"/>
<path d="M111.463 89.375V119.167" stroke="url(#paint2_linear_366_794)" stroke-width="7.5" stroke-miterlimit="10" stroke-linecap="round"/>
<path d="M125.125 101.916L113.405 90.1958C113.15 89.94 112.848 89.737 112.514 89.5985C112.181 89.46 111.823 89.3887 111.463 89.3887C111.102 89.3887 110.744 89.46 110.411 89.5985C110.077 89.737 109.775 89.94 109.52 90.1958L97.8 101.916" stroke="url(#paint3_linear_366_794)" stroke-width="7.5" stroke-linecap="round" stroke-linejoin="round"/>
<defs>
<linearGradient id="paint0_linear_366_794" x1="16.3854" y1="71.4994" x2="126.615" y2="71.4994" gradientUnits="userSpaceOnUse">
<stop stop-color="#9333EA"/>
<stop offset="1" stop-color="#6366F1"/>
</linearGradient>
<linearGradient id="paint1_linear_366_794" x1="17.9346" y1="71.0531" x2="126.615" y2="71.0531" gradientUnits="userSpaceOnUse">
<stop stop-color="#9333EA"/>
<stop offset="1" stop-color="#6366F1"/>
</linearGradient>
<linearGradient id="paint2_linear_366_794" x1="111.463" y1="104.271" x2="112.463" y2="104.271" gradientUnits="userSpaceOnUse">
<stop stop-color="#9333EA"/>
<stop offset="1" stop-color="#6366F1"/>
</linearGradient>
<linearGradient id="paint3_linear_366_794" x1="97.8" y1="95.6523" x2="125.125" y2="95.6523" gradientUnits="userSpaceOnUse">
<stop stop-color="#9333EA"/>
<stop offset="1" stop-color="#6366F1"/>
</linearGradient>
</defs>
</svg>
